HIERARCHY
ROOT Hips
{
	OFFSET -3.958830 18.904000 13.208200
	CHANNELS 6 Xposition Yposition Zposition Zrotation Yrotation Xrotation 
	JOINT LHipJoint
	{
		OFFSET 0.000000 0.000000 0.000000
		CHANNELS 3 Zrotation Yrotation Xrotation
		JOINT LeftUpLeg
		{
			OFFSET 1.800000 -1.400000 0.085000
			CHANNELS 3 Zrotation Yrotation Xrotation
			JOINT LeftLeg
			{
				OFFSET 2.215000 -6.000000 0.000000
				CHANNELS 3 Zrotation Yrotation Xrotation
				JOINT LeftFoot
				{
					OFFSET 2.500000 -6.900000 0.000000
					CHANNELS 3 Zrotation Yrotation Xrotation
					JOINT LeftToeBase
					{
						OFFSET 0.200000 -0.500000 1.950000
						CHANNELS 3 Zrotation Yrotation Xrotation
						End Site
						{
							OFFSET 0.000000 0.000000 0.000000
						}
					}
				}
			}
		}
	}
	JOINT RHipJoint
	{
		OFFSET 0.000000 0.000000 0.000000
		CHANNELS 3 Zrotation Yrotation Xrotation
		JOINT RightUpLeg
		{
			OFFSET -1.800000 -1.400000 0.085000
			CHANNELS 3 Zrotation Yrotation Xrotation
			JOINT RightLeg
			{
				OFFSET -2.215000 -6.000000 0.000000
				CHANNELS 3 Zrotation Yrotation Xrotation
				JOINT RightFoot
				{
					OFFSET -2.500000 -6.900000 0.000000
					CHANNELS 3 Zrotation Yrotation Xrotation
					JOINT RightToeBase
					{
						OFFSET -0.200000 -0.500000 1.950000
						CHANNELS 3 Zrotation Yrotation Xrotation
						End Site
						{
							OFFSET 0.000000 0.000000 0.000000
						}
					}
				}
			}
		}
	}
	JOINT LowerBack
	{
		OFFSET 0.000000 0.000000 0.000000
		CHANNELS 3 Zrotation Yrotation Xrotation
		JOINT Spine
		{
			OFFSET -0.087000 1.940000 -0.288900
			CHANNELS 3 Zrotation Yrotation Xrotation
			JOINT Spine1
			{
				OFFSET 0.000000 1.950000 0.060000
				CHANNELS 3 Zrotation Yrotation Xrotation
				JOINT Neck
				{
					OFFSET 0.000000 0.000000 0.000000
					CHANNELS 3 Zrotation Yrotation Xrotation
					JOINT Neck1
					{
						OFFSET 0.000000 1.600000 0.340000
						CHANNELS 3 Zrotation Yrotation Xrotation
						JOINT Head
						{
							OFFSET 0.000000 1.667000 -0.240000
							CHANNELS 3 Zrotation Yrotation Xrotation
							End Site
							{
								OFFSET 0.000000 0.000000 0.000000
							}
						}
					}
				}
				JOINT LeftShoulder
				{
					OFFSET 0.000000 0.000000 0.000000
					CHANNELS 3 Zrotation Yrotation Xrotation
					JOINT LeftArm
					{
						OFFSET 2.700000 1.550000 -0.730000
						CHANNELS 3 Zrotation Yrotation Xrotation
						JOINT LeftForeArm
						{
							OFFSET 5.450000 0.000000 0.000000
							CHANNELS 3 Zrotation Yrotation Xrotation
							JOINT LeftHand
							{
								OFFSET 3.450000 0.000000 0.000000
								CHANNELS 3 Zrotation Yrotation Xrotation
								JOINT LeftHandIndex1
								{
									OFFSET 0.750000 0.000000 0.000000
									CHANNELS 3 Zrotation Yrotation Xrotation
									End Site
									{
										OFFSET 0.000000 0.000000 0.000000
									}
								}
							}
						}
					}
				}
				JOINT RightShoulder
				{
					OFFSET 0.000000 0.000000 0.000000
					CHANNELS 3 Zrotation Yrotation Xrotation
					JOINT RightArm
					{
						OFFSET -2.700000 1.550000 -0.730000
						CHANNELS 3 Zrotation Yrotation Xrotation
						JOINT RightForeArm
						{
							OFFSET -5.450000 0.000000 0.000000
							CHANNELS 3 Zrotation Yrotation Xrotation
							JOINT RightHand
							{
								OFFSET -3.450000 0.000000 0.000000
								CHANNELS 3 Zrotation Yrotation Xrotation
								JOINT RightHandIndex1
								{
									OFFSET -0.750000 0.000000 0.000000
									CHANNELS 3 Zrotation Yrotation Xrotation
									End Site
									{
										OFFSET 0.000000 0.000000 0.000000
									}
								}
							}
						}
					}
				}
			}
		}
	}
}
MOTION
Frames: 7
Frame Time: 0.016667
0.801890 16.498530 -8.008700 31.265685 -32.507057 -14.687705 -14.961286 15.143597 2.192083 19.652431 3.857789 -2.160235 12.469318 12.156547 67.494729 2.316493 11.559743 0.755798 0.210750 0.095970 0.128410 18.276724 -10.090043 4.048816 -33.295129 1.097712 -38.828246 -4.050740 -8.682334 49.501610 -0.777133 -7.058575 1.856740 -0.311790 -0.350640 0.019170 -3.275210 -4.350504 -8.836216 24.086395 -8.462515 12.736885 -7.991177 -1.209083 -15.740713 7.640294 -9.953866 -18.816621 -20.588165 6.623310 62.733158 -10.993760 -2.109240 3.309450 -10.429209 8.160523 4.397580 -52.202082 31.966174 -13.948655 -42.877352 13.964541 -9.988236 -3.103238 2.913903 0.358750 -0.390840 0.329050 0.148230 -6.477833 10.751776 13.319982 36.653183 4.586121 -7.848832 -108.856385 31.461096 -47.782063 2.635454 -1.660983 0.269650 -0.149020 -0.238720 0.070940 
0.778100 16.472360 -8.025110 33.339435 -33.456877 -15.419844 -15.190905 13.937320 3.343253 19.005898 2.572403 -4.935514 -5.964024 27.343599 67.502733 2.937065 13.911272 0.164245 0.147820 0.014260 0.130870 18.233462 -9.471767 3.917915 -34.814732 0.709133 -39.970052 -4.183380 -8.814299 49.870682 -0.784095 -7.201474 1.830163 -0.358290 -0.336860 0.029890 -3.029312 -3.998298 -9.557428 20.487118 -8.807405 14.830346 -3.833231 -1.065449 -17.432945 6.266145 -8.180664 -18.265382 -14.994638 4.772438 60.165586 -13.553170 2.020310 4.504360 -9.075024 9.111735 4.744123 -53.030374 33.599928 -14.996115 -45.519448 14.088074 -10.815399 -3.151417 2.879404 0.361420 -0.342090 0.312110 0.121770 -5.601661 8.010454 12.660719 43.587511 5.672146 -6.193022 -119.096289 29.793183 -56.386306 2.622510 -1.716563 0.237950 -0.169170 -0.214780 0.034470 
0.743060 16.464800 -8.039620 35.102472 -34.586878 -15.933088 -15.319355 13.131730 4.219233 15.815835 1.904220 -6.731052 -29.096465 35.962761 51.332858 3.073706 13.662987 0.272129 0.085540 -0.060250 0.120130 18.200314 -9.074604 3.849558 -35.137296 0.849893 -41.252132 -5.331794 -8.173756 50.431642 -0.787443 -7.220659 1.823174 -0.415580 -0.349600 0.042580 -2.863186 -3.785795 -9.982309 18.091988 -9.197485 16.092162 -0.786860 -0.576158 -19.565219 4.815229 -6.868515 -18.174884 -11.541496 3.561111 59.262491 -15.664390 4.751500 6.048800 -8.022555 9.991744 5.296687 -52.887359 35.571503 -15.152931 -48.230078 14.982175 -11.844198 -3.152243 2.876926 0.359710 -0.328460 0.314080 0.088930 -4.215592 5.684000 12.255888 51.613868 3.785164 -5.355323 -127.593686 29.355403 -65.688802 2.630184 -1.765659 0.236940 -0.205880 -0.185830 0.017780 
0.727220 16.463270 -8.016060 34.417784 -36.966216 -14.630701 -15.297878 13.010314 4.354428 13.588999 3.590136 -6.997617 -54.052624 33.710494 26.991381 2.808128 11.507862 0.893852 0.019000 -0.139250 0.094540 18.244922 -8.858439 3.977425 -33.667708 2.117004 -43.246896 -5.764302 -7.721432 51.107036 -0.773125 -7.204803 1.838105 -0.479560 -0.338720 0.061480 -3.041443 -3.926172 -9.932013 21.040345 -9.640796 15.741842 0.044521 0.317179 -20.833093 3.367797 -6.098511 -17.428838 -10.101186 2.781242 56.472314 -16.927870 6.818430 7.977410 -7.190857 11.627797 5.484126 -53.242517 37.026309 -15.079936 -49.922810 16.857491 -12.840884 -3.163491 2.881114 0.331700 -0.300750 0.299960 0.071670 -2.748775 2.785638 11.345535 58.822210 -0.224729 -6.518895 -132.308801 30.731014 -73.952557 2.644995 -1.818662 0.243460 -0.253940 -0.168720 0.018950 
0.703400 16.494340 -7.992960 33.723544 -38.437373 -13.481437 -15.315107 13.020474 4.511975 8.614176 3.530809 -8.229767 -62.501602 26.441623 14.603739 2.626320 10.196417 1.298092 -0.028890 -0.200190 0.066960 18.249050 -8.677271 3.899992 -31.453468 2.788606 -44.140462 -7.336310 -6.659766 50.838618 -0.743386 -6.990766 1.930396 -0.530650 -0.326630 0.059490 -3.062448 -4.424182 -9.850776 23.913090 -10.211214 15.618230 0.718438 1.342951 -23.030900 2.222341 -6.389035 -16.836248 -11.383536 3.060216 55.503587 -17.493030 7.465250 9.562720 -5.706476 14.622978 5.173663 -52.292137 37.721988 -13.515345 -51.188175 19.043832 -13.437732 -3.124624 2.878112 0.328060 -0.297940 0.296070 0.075590 -2.052986 -0.358397 10.596627 65.274948 -5.773037 -9.389305 -133.932567 34.669181 -82.595931 2.659925 -1.819763 0.239960 -0.265780 -0.163460 0.028450 
0.657450 16.479090 -7.959380 33.470331 -41.203593 -13.262763 -15.319013 12.992243 4.587831 1.694197 3.058479 -8.768523 -62.933923 19.774653 7.294806 2.466717 9.000250 1.675993 -0.056330 -0.222710 0.060210 18.279769 -8.625495 3.811678 -29.275953 3.119219 -44.657501 -8.579556 -5.739838 49.893228 -0.701468 -6.723362 2.029416 -0.570770 -0.334260 0.065810 -3.171372 -4.591901 -9.684823 26.282398 -10.006245 15.881628 1.185378 1.791712 -23.960453 1.113694 -6.428612 -15.910589 -12.409930 2.831711 53.830857 -18.130970 7.967300 10.822370 -2.733177 18.301674 4.394336 -49.351361 36.584356 -10.578935 -54.785529 23.025020 -15.175450 -3.021953 2.949575 0.288730 -0.293040 0.300960 0.080630 -2.778786 -4.791394 9.761988 71.665149 -11.019766 -12.989408 -131.891366 43.463974 -93.777831 2.703157 -1.785161 0.267520 -0.302600 -0.184390 0.048400 
0.650990 16.484390 -7.949740 32.570253 -43.111487 -14.048874 -15.329020 13.015700 4.672043 -4.333774 1.604023 -9.566575 -58.745978 15.895784 4.969144 2.237528 8.133280 1.915385 -0.046010 -0.224830 0.112830 18.292023 -8.709874 3.559066 -26.064666 3.235978 -44.078366 -11.162217 -4.258410 49.548927 -0.707786 -6.512451 2.091806 -0.577680 -0.398950 0.049660 -3.174295 -4.792559 -9.504137 27.816299 -10.499759 17.682402 1.351191 1.017309 -22.994261 1.054261 -5.861504 -15.611951 -12.483395 2.199482 53.140788 -18.742540 8.114390 9.225710 -1.752954 17.792721 4.702876 -50.436119 36.381926 -11.697148 -57.957348 22.385076 -15.934239 -2.983747 2.966230 0.331800 -0.332220 0.330290 0.047810 -3.201293 -5.965901 9.459555 77.918610 -13.870481 -18.187479 -119.767798 55.011216 -93.677562 2.756001 -1.237502 0.263330 -0.316420 -0.198290 0.011340 
